<svg width="375" height="345" viewBox="0 0 375 345" fill="none" xmlns="http://www.w3.org/2000/svg">
<path fill-rule="evenodd" clip-rule="evenodd" d="M0 10H46.2519H375V345H0V10Z" fill="#1F87FE"/>
<path fill-rule="evenodd" clip-rule="evenodd" d="M12.5 25C18.1844 25 22.9826 21.2057 24.5 16.0116C26.0174 21.2057 30.8156 25 36.5 25C43.4036 25 49 19.4036 49 12.5C49 19.4036 54.5964 25 61.5 25C67.1844 25 71.9826 21.2057 73.5 16.0116C75.0174 21.2057 79.8156 25 85.5 25C91.1844 25 95.9826 21.2057 97.5 16.0116C99.0174 21.2057 103.816 25 109.5 25C115.184 25 119.983 21.2057 121.5 16.0116C123.017 21.2057 127.816 25 133.5 25C140.404 25 146 19.4036 146 12.5C146 19.4036 151.596 25 158.5 25C164.184 25 168.983 21.2057 170.5 16.0116C172.017 21.2057 176.816 25 182.5 25C189.404 25 195 19.4036 195 12.5C195 19.4036 200.596 25 207.5 25C213.184 25 217.983 21.2057 219.5 16.0116C221.017 21.2057 225.816 25 231.5 25C238.404 25 244 19.4036 244 12.5C244 19.4036 249.596 25 256.5 25C262.184 25 266.983 21.2057 268.5 16.0116C270.017 21.2057 274.816 25 280.5 25C286.184 25 290.983 21.2057 292.5 16.0116C294.017 21.2057 298.816 25 304.5 25C310.184 25 314.983 21.2057 316.5 16.0116C318.017 21.2057 322.816 25 328.5 25C335.404 25 341 19.4036 341 12.5C341 19.4036 346.596 25 353.5 25C359.184 25 363.983 21.2057 365.5 16.0116C367.017 21.2057 371.816 25 377.5 25C384.404 25 390 19.4036 390 12.5C390 5.59644 384.404 0 377.5 0C371.816 0 367.017 3.79431 365.5 8.9884C363.983 3.79431 359.184 0 353.5 0C346.596 0 341 5.59644 341 12.5C341 5.59644 335.404 0 328.5 0C322.816 0 318.017 3.79431 316.5 8.9884C314.983 3.79431 310.184 0 304.5 0C298.816 0 294.017 3.79431 292.5 8.9884C290.983 3.79431 286.184 0 280.5 0C274.816 0 270.017 3.79431 268.5 8.9884C266.983 3.79431 262.184 0 256.5 0C249.596 0 244 5.59644 244 12.5C244 5.59644 238.404 0 231.5 0C225.816 0 221.017 3.79431 219.5 8.9884C217.983 3.79431 213.184 0 207.5 0C200.596 0 195 5.59644 195 12.5C195 5.59644 189.404 0 182.5 0C176.816 0 172.017 3.79431 170.5 8.9884C168.983 3.79431 164.184 0 158.5 0C151.596 0 146 5.59644 146 12.5C146 5.59644 140.404 0 133.5 0C127.816 0 123.017 3.79431 121.5 8.9884C119.983 3.79431 115.184 0 109.5 0C103.816 0 99.0174 3.79431 97.5 8.9884C95.9826 3.79431 91.1844 0 85.5 0C79.8156 0 75.0174 3.79431 73.5 8.9884C71.9826 3.79431 67.1844 0 61.5 0C54.5964 0 49 5.59644 49 12.5C49 5.59644 43.4036 0 36.5 0C30.8156 0 26.0174 3.79431 24.5 8.9884C22.9826 3.79431 18.1844 0 12.5 0C5.59644 0 0 5.59644 0 12.5C0 19.4036 5.59644 25 12.5 25Z" fill="#1F87FE"/>
<mask id="mask0_0:1446" style="mask-type:alpha" maskUnits="userSpaceOnUse" x="0" y="0" width="390" height="25">
<path fill-rule="evenodd" clip-rule="evenodd" d="M12.5 25C18.1844 25 22.9826 21.2057 24.5 16.0116C26.0174 21.2057 30.8156 25 36.5 25C43.4036 25 49 19.4036 49 12.5C49 19.4036 54.5964 25 61.5 25C67.1844 25 71.9826 21.2057 73.5 16.0116C75.0174 21.2057 79.8156 25 85.5 25C91.1844 25 95.9826 21.2057 97.5 16.0116C99.0174 21.2057 103.816 25 109.5 25C115.184 25 119.983 21.2057 121.5 16.0116C123.017 21.2057 127.816 25 133.5 25C140.404 25 146 19.4036 146 12.5C146 19.4036 151.596 25 158.5 25C164.184 25 168.983 21.2057 170.5 16.0116C172.017 21.2057 176.816 25 182.5 25C189.404 25 195 19.4036 195 12.5C195 19.4036 200.596 25 207.5 25C213.184 25 217.983 21.2057 219.5 16.0116C221.017 21.2057 225.816 25 231.5 25C238.404 25 244 19.4036 244 12.5C244 19.4036 249.596 25 256.5 25C262.184 25 266.983 21.2057 268.5 16.0116C270.017 21.2057 274.816 25 280.5 25C286.184 25 290.983 21.2057 292.5 16.0116C294.017 21.2057 298.816 25 304.5 25C310.184 25 314.983 21.2057 316.5 16.0116C318.017 21.2057 322.816 25 328.5 25C335.404 25 341 19.4036 341 12.5C341 19.4036 346.596 25 353.5 25C359.184 25 363.983 21.2057 365.5 16.0116C367.017 21.2057 371.816 25 377.5 25C384.404 25 390 19.4036 390 12.5C390 5.59644 384.404 0 377.5 0C371.816 0 367.017 3.79431 365.5 8.9884C363.983 3.79431 359.184 0 353.5 0C346.596 0 341 5.59644 341 12.5C341 5.59644 335.404 0 328.5 0C322.816 0 318.017 3.79431 316.5 8.9884C314.983 3.79431 310.184 0 304.5 0C298.816 0 294.017 3.79431 292.5 8.9884C290.983 3.79431 286.184 0 280.5 0C274.816 0 270.017 3.79431 268.5 8.9884C266.983 3.79431 262.184 0 256.5 0C249.596 0 244 5.59644 244 12.5C244 5.59644 238.404 0 231.5 0C225.816 0 221.017 3.79431 219.5 8.9884C217.983 3.79431 213.184 0 207.5 0C200.596 0 195 5.59644 195 12.5C195 5.59644 189.404 0 182.5 0C176.816 0 172.017 3.79431 170.5 8.9884C168.983 3.79431 164.184 0 158.5 0C151.596 0 146 5.59644 146 12.5C146 5.59644 140.404 0 133.5 0C127.816 0 123.017 3.79431 121.5 8.9884C119.983 3.79431 115.184 0 109.5 0C103.816 0 99.0174 3.79431 97.5 8.9884C95.9826 3.79431 91.1844 0 85.5 0C79.8156 0 75.0174 3.79431 73.5 8.9884C71.9826 3.79431 67.1844 0 61.5 0C54.5964 0 49 5.59644 49 12.5C49 5.59644 43.4036 0 36.5 0C30.8156 0 26.0174 3.79431 24.5 8.9884C22.9826 3.79431 18.1844 0 12.5 0C5.59644 0 0 5.59644 0 12.5C0 19.4036 5.59644 25 12.5 25Z" fill="white"/>
</mask>
<g mask="url(#mask0_0:1446)">
</g>
</svg>
